<mxfile host="65bd71144e">
    <diagram id="1Tgc0WAK-sqbQ3idx1S3" name="Page-1">
        <mxGraphModel dx="603" dy="1442" grid="1" gridSize="10" guides="1" tooltips="1" connect="1" arrows="1" fold="1" page="1" pageScale="1" pageWidth="850" pageHeight="1100" math="0" shadow="0">
            <root>
                <mxCell id="0"/>
                <mxCell id="1" parent="0"/>
                <mxCell id="5" value="&lt;br&gt;&lt;br&gt;&lt;br&gt;Name&lt;br&gt;Lastname&lt;br&gt;Firstname&lt;br&gt;Gender&lt;br&gt;Birthdate&lt;br&gt;Birthplace&lt;br&gt;Marital_starus&lt;br&gt;profession&lt;br&gt;Nationality&lt;br&gt;Origin_province&lt;br&gt;password&lt;br&gt;role_id&lt;br&gt;&lt;br&gt;&lt;br&gt;" style="whiteSpace=wrap;html=1;aspect=fixed;" vertex="1" parent="1">
                    <mxGeometry x="160" y="59" width="210" height="210" as="geometry"/>
                </mxCell>
                <mxCell id="12" style="edgeStyle=none;html=1;entryX=0.45;entryY=1;entryDx=0;entryDy=0;entryPerimeter=0;" edge="1" parent="1" source="4" target="7">
                    <mxGeometry relative="1" as="geometry"/>
                </mxCell>
                <mxCell id="4" value="Individ" style="rounded=0;whiteSpace=wrap;html=1;" vertex="1" parent="1">
                    <mxGeometry x="160" y="30" width="210" height="30" as="geometry"/>
                </mxCell>
                <mxCell id="10" value="" style="group" vertex="1" connectable="0" parent="1">
                    <mxGeometry x="210" y="-180" width="120" height="150" as="geometry"/>
                </mxCell>
                <mxCell id="7" value="name" style="whiteSpace=wrap;html=1;aspect=fixed;" vertex="1" parent="10">
                    <mxGeometry width="120" height="120" as="geometry"/>
                </mxCell>
                <mxCell id="8" value="Role" style="rounded=0;whiteSpace=wrap;html=1;" vertex="1" parent="10">
                    <mxGeometry width="120" height="30" as="geometry"/>
                </mxCell>
            </root>
        </mxGraphModel>
    </diagram>
</mxfile>